<svg xmlns="http://www.w3.org/2000/svg" viewBox="0 0 80 80" fill="#fff" xmlns:v="https://vecta.io/nano"><path d="M1.9 7.8h7v1.8H6.4v8.7h-2V9.6H1.9V7.8zm15.9 10.5l-1.5-3.8h-1.7v3.8h-2V7.8h3.7c2.1 0 3.6 1.3 3.6 3.3 0 1.4-.6 2.4-1.7 2.9l1.7 4.3h-2.1zm-3.2-8.7v3.2h1.5c1.1 0 1.8-.6 1.8-1.6s-.7-1.6-1.8-1.6h-1.5zm8.5 8.7l3.1-10.5h2.1l3.1 10.5h-2l-.5-1.9h-3.3l-.6 1.9h-1.9zm2.9-3.6h2.4l-1.2-4.5-1.2 4.5zm11.1 3.6h-2V7.8h2v10.5zm11.7 0h-1.6l-3.7-6.6v6.6h-1.8V7.8h1.7l3.6 6.5V7.8h1.8v10.5zm6.6-4.4v2.7h4.5v1.8h-6.5V7.8h6.4v1.8h-4.4v2.5h3.9v1.8h-3.9zm13.7 4.4l-1.5-3.8H66v3.8h-2V7.8h3.7c2.1 0 3.6 1.3 3.6 3.3 0 1.4-.6 2.4-1.7 2.9l1.7 4.3h-2.2zM66 9.6v3.2h1.5c1.1 0 1.8-.6 1.8-1.6s-.7-1.6-1.8-1.6H66zm5.2 47.7h0c-3.9 0-7 3.2-7 7 0 3.9 3.2 7 7 7h0c3.9 0 7-3.2 7-7s-3.1-7-7-7zm0-5.3V25.1H32v39.2h26.9V52H44.3V37.4h14.6V52zm-57-26.9H1.9v39.2h12.3V51.2h11.4v-13H14.2z"/></svg>