<?xml version="1.0" encoding="UTF-8" standalone="no"?>
<!DOCTYPE svg PUBLIC "-//W3C//DTD SVG 1.1//EN" "http://www.w3.org/Graphics/SVG/1.1/DTD/svg11.dtd">
<svg version="1.1" xmlns="http://www.w3.org/2000/svg" xmlns:xlink="http://www.w3.org/1999/xlink" preserveAspectRatio="xMidYMid meet" viewBox="0 0 640 640" width="640" height="640"><defs><path d="M71.2 62.4L71.2 76.8L51.2 76.8L51.2 146.4L35.2 146.4L35.2 76.8L15.2 76.8L15.2 62.4L71.2 62.4Z" id="b81cxg4L3p"></path><path d="M130.4 116L116.8 116L116.8 146.4L100.8 146.4L100.8 62.4C118.56 62.4 128.43 62.4 130.4 62.4C147.2 62.4 159.2 72.8 159.2 88.8C159.2 100 154.4 108 145.6 112C146.51 114.29 151.04 125.76 159.2 146.4L142.4 146.4L130.4 116ZM116.8 102.4C124 102.4 128 102.4 128.8 102.4C137.6 102.4 143.2 97.6 143.2 89.6C143.2 81.6 137.6 76.8 128.8 76.8C128 76.8 124 76.8 116.8 76.8L116.8 102.4Z" id="b6IzuRSF2"></path><path d="M209.6 62.4L226.4 62.4L251.2 146.4L235.2 146.4L231.2 131.2L204.8 131.2L200 146.4L184.8 146.4L209.6 62.4ZM227.2 117.6L217.6 81.6L208 117.6L227.2 117.6Z" id="b7TrPzRxY"></path><path d="M280.8 146.4L280.8 62.4L296.8 62.4L296.8 146.4L280.8 146.4Z" id="bZl3dAmrb"></path><path d="M377.6 146.4L348 93.6L348 146.4L333.6 146.4L333.6 62.4L347.2 62.4L376 114.4L376 62.4L390.4 62.4L390.4 146.4L377.6 146.4Z" id="c2cvQGWEe"></path><path d="M443.2 132.8L479.2 132.8L479.2 147.2L427.2 147.2L427.2 62.4L478.4 62.4L478.4 76.8L443.2 76.8L443.2 96.8L474.4 96.8L474.4 111.2L443.2 111.2L443.2 132.8Z" id="b4te9emhzW"></path><path d="M540.8 116L528 116L528 146.4L512 146.4L512 62.4C529.76 62.4 539.63 62.4 541.6 62.4C558.4 62.4 570.4 72.8 570.4 88.8C570.4 100 565.6 108 556.8 112C557.71 114.29 562.24 125.76 570.4 146.4L552.8 146.4L540.8 116ZM528 102.4C535.2 102.4 539.2 102.4 540 102.4C548.8 102.4 554.4 97.6 554.4 89.6C554.4 81.6 548.8 76.8 540 76.8C539.2 76.8 535.2 76.8 528 76.8L528 102.4Z" id="e3PiZiJ3L4"></path><path d="M569.6 458.4C538.4 458.4 513.6 484 513.6 514.4C513.6 545.6 539.2 570.4 569.6 570.4C569.6 570.4 569.6 570.4 569.6 570.4C600.8 570.4 625.6 544.8 625.6 514.4C625.6 484 600.8 458.4 569.6 458.4C569.6 458.4 569.6 458.4 569.6 458.4Z" id="aamjkjQbB"></path><path d="M569.6 200.8L256 200.8L256 514.4L471.2 514.4L471.2 416L354.4 416L354.4 299.2L471.2 299.2L471.2 416L569.6 416L569.6 200.8Z" id="bp2JpIId8"></path><path d="M15.2 200.8L15.2 514.4L113.6 514.4L113.6 409.6L204.8 409.6L204.8 305.6L113.6 305.6L113.6 200.8L15.2 200.8Z" id="b1FDKXTE07"></path></defs><g><g><g><use xlink:href="#b81cxg4L3p" opacity="1" fill="#000000" fill-opacity="1"></use><g><use xlink:href="#b81cxg4L3p" opacity="1" fill-opacity="0" stroke="#000000" stroke-width="1" stroke-opacity="0"></use></g></g><g><use xlink:href="#b6IzuRSF2" opacity="1" fill="#000000" fill-opacity="1"></use><g><use xlink:href="#b6IzuRSF2" opacity="1" fill-opacity="0" stroke="#000000" stroke-width="1" stroke-opacity="0"></use></g></g><g><use xlink:href="#b7TrPzRxY" opacity="1" fill="#000000" fill-opacity="1"></use><g><use xlink:href="#b7TrPzRxY" opacity="1" fill-opacity="0" stroke="#000000" stroke-width="1" stroke-opacity="0"></use></g></g><g><use xlink:href="#bZl3dAmrb" opacity="1" fill="#000000" fill-opacity="1"></use><g><use xlink:href="#bZl3dAmrb" opacity="1" fill-opacity="0" stroke="#000000" stroke-width="1" stroke-opacity="0"></use></g></g><g><use xlink:href="#c2cvQGWEe" opacity="1" fill="#000000" fill-opacity="1"></use><g><use xlink:href="#c2cvQGWEe" opacity="1" fill-opacity="0" stroke="#000000" stroke-width="1" stroke-opacity="0"></use></g></g><g><use xlink:href="#b4te9emhzW" opacity="1" fill="#000000" fill-opacity="1"></use><g><use xlink:href="#b4te9emhzW" opacity="1" fill-opacity="0" stroke="#000000" stroke-width="1" stroke-opacity="0"></use></g></g><g><use xlink:href="#e3PiZiJ3L4" opacity="1" fill="#000000" fill-opacity="1"></use><g><use xlink:href="#e3PiZiJ3L4" opacity="1" fill-opacity="0" stroke="#000000" stroke-width="1" stroke-opacity="0"></use></g></g><g><use xlink:href="#aamjkjQbB" opacity="1" fill="#000000" fill-opacity="1"></use><g><use xlink:href="#aamjkjQbB" opacity="1" fill-opacity="0" stroke="#000000" stroke-width="1" stroke-opacity="0"></use></g></g><g><use xlink:href="#bp2JpIId8" opacity="1" fill="#000000" fill-opacity="1"></use><g><use xlink:href="#bp2JpIId8" opacity="1" fill-opacity="0" stroke="#000000" stroke-width="1" stroke-opacity="0"></use></g></g><g><use xlink:href="#b1FDKXTE07" opacity="1" fill="#000000" fill-opacity="1"></use><g><use xlink:href="#b1FDKXTE07" opacity="1" fill-opacity="0" stroke="#000000" stroke-width="1" stroke-opacity="0"></use></g></g></g></g></svg>