<?xml version="1.0" encoding="utf-8"?>
<!-- Generator: Adobe Illustrator 24.0.3, SVG Export Plug-In . SVG Version: 6.00 Build 0)  -->
<svg version="1.1" xmlns="http://www.w3.org/2000/svg" xmlns:xlink="http://www.w3.org/1999/xlink" x="0px" y="0px"
	 viewBox="0 0 80 80" style="enable-background:new 0 0 80 80;" xml:space="preserve">
<style type="text/css">
	.st0{fill:#FFFFFF;}
</style>
<g id="Layer_1">
	<g>
		<g>
			<path class="st0" d="M1.9,7.8h7v1.8H6.4v8.7h-2V9.6H1.9V7.8z"/>
			<path class="st0" d="M17.8,18.3l-1.5-3.8h-1.7v3.8h-2V7.8h3.7c2.1,0,3.6,1.3,3.6,3.3c0,1.4-0.6,2.4-1.7,2.9l1.7,4.3H17.8z
				 M14.6,9.6v3.2h1.5c1.1,0,1.8-0.6,1.8-1.6c0-1-0.7-1.6-1.8-1.6H14.6z"/>
			<path class="st0" d="M23.1,18.3l3.1-10.5h2.1l3.1,10.5h-2l-0.5-1.9h-3.3L25,18.3H23.1z M26,14.7h2.4l-1.2-4.5L26,14.7z"/>
			<path class="st0" d="M37.1,18.3h-2V7.8h2V18.3z"/>
			<path class="st0" d="M48.8,18.3h-1.6l-3.7-6.6v6.6h-1.8V7.8h1.7l3.6,6.5V7.8h1.8V18.3z"/>
			<path class="st0" d="M55.4,13.9v2.7h4.5v1.8h-6.5V7.8h6.4v1.8h-4.4v2.5h3.9v1.8H55.4z"/>
			<path class="st0" d="M69.1,18.3l-1.5-3.8H66v3.8h-2V7.8h3.7c2.1,0,3.6,1.3,3.6,3.3c0,1.4-0.6,2.4-1.7,2.9l1.7,4.3H69.1z M66,9.6
				v3.2h1.5c1.1,0,1.8-0.6,1.8-1.6c0-1-0.7-1.6-1.8-1.6H66z"/>
		</g>
		<g>
			<path class="st0" d="M71.2,57.3L71.2,57.3c-3.9,0-7,3.2-7,7c0,3.9,3.2,7,7,7h0c3.9,0,7-3.2,7-7C78.2,60.5,75.1,57.3,71.2,57.3z"
				/>
			<polygon class="st0" points="71.2,52 71.2,25.1 32,25.1 32,64.3 58.9,64.3 58.9,52 44.3,52 44.3,37.4 58.9,37.4 58.9,52 			"/>
			<polygon class="st0" points="14.2,25.1 1.9,25.1 1.9,64.3 14.2,64.3 14.2,51.2 25.6,51.2 25.6,38.2 14.2,38.2 			"/>
		</g>
	</g>
</g>
<g id="_x31_-basic-company-logo_x5F_full-colored-version_x5F_833x283.ai">
</g>
<g id="Layer_3">
</g>
</svg>
