<svg xmlns="http://www.w3.org/2000/svg" xmlns:xlink="http://www.w3.org/1999/xlink" preserveAspectRatio="xMidYMid meet" width="640" height="640" xmlns:v="https://vecta.io/nano"><style><![CDATA[.B{fill-opacity:0}.C{stroke:#000}.D{stroke-opacity:0}]]></style><defs><path d="M71.2 62.4v14.4h-20v69.6h-16V76.8h-20V62.4h56z" id="A"/><path d="M130.4 116h-13.6v30.4h-16v-84h29.6c16.8 0 28.8 10.4 28.8 26.4 0 11.2-4.8 19.2-13.6 23.2l13.6 34.4h-16.8l-12-30.4zm-13.6-13.6h12c8.8 0 14.4-4.8 14.4-12.8s-5.6-12.8-14.4-12.8h-12v25.6z" id="B"/><path d="M209.6 62.4h16.8l24.8 84h-16l-4-15.2h-26.4l-4.8 15.2h-15.2l24.8-84zm17.6 55.2l-9.6-36-9.6 36h19.2z" id="C"/><path d="M280.8 146.4v-84h16v84h-16z" id="D"/><path d="M377.6 146.4L348 93.6v52.8h-14.4v-84h13.6l28.8 52v-52h14.4v84h-12.8z" id="E"/><path d="M443.2 132.8h36v14.4h-52V62.4h51.2v14.4h-35.2v20h31.2v14.4h-31.2v21.6z" id="F"/><path d="M540.8 116H528v30.4h-16v-84h29.6c16.8 0 28.8 10.4 28.8 26.4 0 11.2-4.8 19.2-13.6 23.2l13.6 34.4h-17.6l-12-30.4zM528 102.4h12c8.8 0 14.4-4.8 14.4-12.8s-5.6-12.8-14.4-12.8h-12v25.6z" id="G"/><path d="M569.6 458.4c-31.2 0-56 25.6-56 56 0 31.2 25.6 56 56 56 31.2 0 56-25.6 56-56s-24.8-56-56-56z" id="H"/><path d="M569.6 200.8H256v313.6h215.2V416H354.4V299.2h116.8V416h98.4V200.8z" id="I"/><path d="M15.2 200.8v313.6h98.4V409.6h91.2v-104h-91.2V200.8H15.2z" id="J"/></defs><use xlink:href="#A"/><use xlink:href="#A" class="B C D"/><use xlink:href="#B"/><use xlink:href="#B" class="B C D"/><use xlink:href="#C"/><use xlink:href="#C" class="B C D"/><use xlink:href="#D"/><use xlink:href="#D" class="B C D"/><use xlink:href="#E"/><use xlink:href="#E" class="B C D"/><use xlink:href="#F"/><use xlink:href="#F" class="B C D"/><use xlink:href="#G"/><use xlink:href="#G" class="B C D"/><use xlink:href="#H"/><use xlink:href="#H" class="B C D"/><use xlink:href="#I"/><use xlink:href="#I" class="B C D"/><use xlink:href="#J"/><use xlink:href="#J" class="B C D"/></svg>